<?xml version="1.0" encoding="UTF-8" standalone="no"?>
<svg width="600px" height="600px" viewBox="0 0 600 600" version="1.1" xmlns="http://www.w3.org/2000/svg" xmlns:xlink="http://www.w3.org/1999/xlink" style="background: #FFFFFF;">
    <!-- Generator: Sketch 3.8.3 (29802) - http://www.bohemiancoding.com/sketch -->
    <title>Artboard 1</title>
    <desc>Created with Sketch.</desc>
    <defs>
        <rect id="path-1" x="0" y="408" width="514" height="63" rx="16"></rect>
        <mask id="mask-2" maskContentUnits="userSpaceOnUse" maskUnits="objectBoundingBox" x="0" y="0" width="514" height="63" fill="white">
            <use xlink:href="#path-1"></use>
        </mask>
        <rect id="path-3" x="2.84217094e-14" y="342" width="332" height="63" rx="16"></rect>
        <mask id="mask-4" maskContentUnits="userSpaceOnUse" maskUnits="objectBoundingBox" x="0" y="0" width="332" height="63" fill="white">
            <use xlink:href="#path-3"></use>
        </mask>
        <path d="M297.5,30 L15.9967747,30 C7.15655574,30 0,37.1633265 0,45.9997377 L0,278.433962 L0,322.007876 C0,330.83595 7.16200001,338 15.9967747,338 L284.003225,338 C292.843444,338 300,330.840082 300,322.007876 L300,278.433962 L300,203.929993 L495.999435,203.929993 C504.836303,203.929993 512,196.760142 512,187.937014 L512,45.992979 C512,37.1603006 504.841829,30 495.999435,30 L297.5,30 Z" id="path-5"></path>
        <mask id="mask-6" maskContentUnits="userSpaceOnUse" maskUnits="objectBoundingBox" x="0" y="0" width="512" height="308" fill="white">
            <use xlink:href="#path-5"></use>
        </mask>
        <rect id="path-7" x="335" y="342" width="179" height="63" rx="16"></rect>
        <mask id="mask-8" maskContentUnits="userSpaceOnUse" maskUnits="objectBoundingBox" x="0" y="0" width="179" height="63" fill="white">
            <use xlink:href="#path-7"></use>
        </mask>
        <rect id="path-9" x="335" y="275" width="179" height="63" rx="16"></rect>
        <mask id="mask-10" maskContentUnits="userSpaceOnUse" maskUnits="objectBoundingBox" x="0" y="0" width="179" height="63" fill="white">
            <use xlink:href="#path-9"></use>
        </mask>
        <rect id="path-11" x="9" y="266" width="282" height="63" rx="16"></rect>
        <mask id="mask-12" maskContentUnits="userSpaceOnUse" maskUnits="objectBoundingBox" x="0" y="0" width="282" height="63" fill="white">
            <use xlink:href="#path-11"></use>
        </mask>
        <rect id="path-13" x="9" y="198" width="282" height="63" rx="16"></rect>
        <mask id="mask-14" maskContentUnits="userSpaceOnUse" maskUnits="objectBoundingBox" x="0" y="0" width="282" height="63" fill="white">
            <use xlink:href="#path-13"></use>
        </mask>
        <rect id="path-15" x="9" y="38" width="494" height="156" rx="16"></rect>
        <mask id="mask-16" maskContentUnits="userSpaceOnUse" maskUnits="objectBoundingBox" x="0" y="0" width="494" height="156" fill="white">
            <use xlink:href="#path-15"></use>
        </mask>
    </defs>
    <g id="Page-1" stroke="none" stroke-width="1" fill="none" fill-rule="evenodd">
        <g id="Artboard-1">
            <g id="Group" transform="translate(43.000000, 65.000000)">
                <use id="Rectangle-1" stroke="#6971F2" mask="url(#mask-2)" stroke-width="6" fill="#FFFFFF" xlink:href="#path-1"></use>
                <use id="Rectangle-1" stroke="#000000" mask="url(#mask-4)" stroke-width="6" fill="#FFFFFF" xlink:href="#path-3"></use>
                <use id="Combined-Shape" stroke="#9B9B9B" mask="url(#mask-6)" stroke-width="4" stroke-dasharray="10" fill="#FFFFFF" xlink:href="#path-5"></use>
                <text id="MiraLink" font-family="Muli-Light, Muli" font-size="40" font-weight="300" letter-spacing="0.851064026" fill="#6971F2">
                    <tspan x="172" y="457">MiraLink</tspan>
                </text>
                <text id="Loader" font-family="Menlo-Regular, Menlo" font-size="20" font-weight="normal" letter-spacing="0.425532013" fill="#4A4A4A">
                    <tspan x="129" y="381">Loader</tspan>
                </text>
                <text id="sandbox" font-family="Muli-Light, Muli" font-size="20" font-weight="300" letter-spacing="0.425532013" fill="#9B9B9B">
                    <tspan x="397" y="24">sandbox</tspan>
                </text>
                <use id="Rectangle-1" stroke="#000000" mask="url(#mask-8)" stroke-width="6" fill="#FFFFFF" transform="translate(424.500000, 373.500000) scale(-1, 1) translate(-424.500000, -373.500000) " xlink:href="#path-7"></use>
                <text id="LocalStorage" font-family="Menlo-Regular, Menlo" font-size="20" font-weight="normal" letter-spacing="0.425532013" fill="#4A4A4A">
                    <tspan x="350" y="381">LocalStorage</tspan>
                </text>
                <use id="Rectangle-1" stroke="#6971F2" mask="url(#mask-10)" stroke-width="6" fill="#FFFFFF" transform="translate(424.500000, 306.500000) scale(-1, 1) translate(-424.500000, -306.500000) " xlink:href="#path-9"></use>
                <text id="mira-kit" font-family="Muli-Light, Muli" font-size="30" font-weight="300" letter-spacing="0.638298035" fill="#6971F2">
                    <tspan x="367" y="320">mira-kit</tspan>
                </text>
                <use id="Rectangle-1" stroke="#4A4A4A" mask="url(#mask-12)" stroke-width="6" fill="#FFFFFF" transform="translate(150.000000, 297.500000) scale(-1, 1) translate(-150.000000, -297.500000) " xlink:href="#path-11"></use>
                <text id="Application" font-family="Menlo-Regular, Menlo" font-size="20" font-weight="normal" letter-spacing="0.425532013" fill="#4A4A4A">
                    <tspan x="82" y="305">Application</tspan>
                </text>
                <use id="Rectangle-1" stroke="#7ED321" mask="url(#mask-14)" stroke-width="6" fill="#FFFFFF" transform="translate(150.000000, 229.500000) scale(-1, 1) translate(-150.000000, -229.500000) " xlink:href="#path-13"></use>
                <text id="YourRootContainer" font-family="Menlo-Regular, Menlo" font-size="20" font-weight="normal" letter-spacing="0.425532013" fill="#7ED321">
                    <tspan x="45" y="237">YourRootContainer</tspan>
                </text>
                <use id="Rectangle-1" stroke="#7ED321" mask="url(#mask-16)" stroke-width="6" fill="#FFFFFF" transform="translate(256.000000, 116.000000) scale(-1, 1) translate(-256.000000, -116.000000) " xlink:href="#path-15"></use>
                <text id="YourApp" font-family="Menlo-Regular, Menlo" font-size="20" font-weight="normal" letter-spacing="0.425532013" fill="#7ED321">
                    <tspan x="213" y="123">YourApp</tspan>
                </text>
                <path d="M416.5,200.5 L416.5,267.57" id="Line" stroke="#7ED321" stroke-width="3" stroke-linecap="square" fill="#7ED321"></path>
                <path id="Line-decoration-1" d="M416.5,267.57 L419.5,256.77 L413.5,256.77 L416.5,267.57 Z" stroke="#7ED321" stroke-width="3" stroke-linecap="square" fill="#7ED321"></path>
                <path d="M436,270.516441 L436,202.07" id="Line" stroke="#6971F2" stroke-width="3" stroke-linecap="square" fill="#6971F2"></path>
                <path id="Line-decoration-1" d="M436,202.07 L433,212.87 L439,212.87 L436,202.07 Z" stroke="#6971F2" stroke-width="3" stroke-linecap="square" fill="#6971F2"></path>
            </g>
        </g>
    </g>
</svg>