<?xml version="1.0" encoding="UTF-8"?>
<svg width="32px" height="32px" viewBox="0 0 32 32" version="1.1" xmlns="http://www.w3.org/2000/svg" xmlns:xlink="http://www.w3.org/1999/xlink">
    <!-- Generator: Sketch 49.1 (51147) - http://www.bohemiancoding.com/sketch -->
    <title>icon</title>
    <desc>Created with Sketch.</desc>
    <defs></defs>
    <g id="icon" stroke="none" stroke-width="1" fill="none" fill-rule="evenodd">
        <rect id="Rectangle" fill="#16161D" x="0" y="0" width="32" height="32"></rect>
        <path d="M9.6,10 L22.4,10 C23.2836556,10 24,10.7163444 24,11.6 L24,21.2 C24,22.0836556 23.2836556,22.8 22.4,22.8 L9.6,22.8 C8.7163444,22.8 8,22.0836556 8,21.2 L8,11.6 C8,10.7163444 8.7163444,10 9.6,10 Z M9.6,11.6 L9.6,21.2 L22.4,21.2 L22.4,11.6 L9.6,11.6 Z M16,15.2 C16.6627417,15.2 17.2,15.7372583 17.2,16.4 C17.2,17.0627417 16.6627417,17.6 16,17.6 C15.3372583,17.6 14.8,17.0627417 14.8,16.4 C14.8,15.7372583 15.3372583,15.2 16,15.2 Z" id="Shape" fill="#FFFFFF" fill-rule="nonzero"></path>
    </g>
</svg>