<?xml version="1.0" encoding="UTF-8"?>
<svg width="32px" height="32px" viewBox="0 0 32 32" version="1.1" xmlns="http://www.w3.org/2000/svg" xmlns:xlink="http://www.w3.org/1999/xlink">
    <!-- Generator: Sketch 47.1 (45422) - http://www.bohemiancoding.com/sketch -->
    <title>Videos</title>
    <desc>Created with Sketch.</desc>
    <defs>
        <rect id="path-1" x="0" y="0" width="32" height="32"></rect>
        <linearGradient x1="24.2539447%" y1="22.5295298%" x2="90.721039%" y2="94.2141917%" id="linearGradient-3">
            <stop stop-color="#6971F2" offset="0%"></stop>
            <stop stop-color="#373B79" offset="100%"></stop>
        </linearGradient>
        <path d="M3.5,7 L28.5,7 L28.5,25 L3.5,25 L3.5,7 Z M5,8.50468445 L5,9.49531555 C5,9.78596497 5.22595492,10 5.50468445,10 L6.49531555,10 C6.78596497,10 7,9.77404508 7,9.49531555 L7,8.50468445 C7,8.21403503 6.77404508,8 6.49531555,8 L5.50468445,8 C5.21403503,8 5,8.22595492 5,8.50468445 Z M9,8.50468445 L9,9.49531555 C9,9.78596497 9.22595492,10 9.50468445,10 L10.4953156,10 C10.785965,10 11,9.77404508 11,9.49531555 L11,8.50468445 C11,8.21403503 10.7740451,8 10.4953156,8 L9.50468445,8 C9.21403503,8 9,8.22595492 9,8.50468445 Z M13,8.50468445 L13,9.49531555 C13,9.78596497 13.2259549,10 13.5046844,10 L14.4953156,10 C14.785965,10 15,9.77404508 15,9.49531555 L15,8.50468445 C15,8.21403503 14.7740451,8 14.4953156,8 L13.5046844,8 C13.214035,8 13,8.22595492 13,8.50468445 Z M17,8.50468445 L17,9.49531555 C17,9.78596497 17.2259549,10 17.5046844,10 L18.4953156,10 C18.785965,10 19,9.77404508 19,9.49531555 L19,8.50468445 C19,8.21403503 18.7740451,8 18.4953156,8 L17.5046844,8 C17.214035,8 17,8.22595492 17,8.50468445 Z M21,8.50468445 L21,9.49531555 C21,9.78596497 21.2259549,10 21.5046844,10 L22.4953156,10 C22.785965,10 23,9.77404508 23,9.49531555 L23,8.50468445 C23,8.21403503 22.7740451,8 22.4953156,8 L21.5046844,8 C21.214035,8 21,8.22595492 21,8.50468445 Z M25,8.50468445 L25,9.49531555 C25,9.78596497 25.2259549,10 25.5046844,10 L26.4953156,10 C26.785965,10 27,9.77404508 27,9.49531555 L27,8.50468445 C27,8.21403503 26.7740451,8 26.4953156,8 L25.5046844,8 C25.214035,8 25,8.22595492 25,8.50468445 Z M5,22.5046844 L5,23.4953156 C5,23.785965 5.22595492,24 5.50468445,24 L6.49531555,24 C6.78596497,24 7,23.7740451 7,23.4953156 L7,22.5046844 C7,22.214035 6.77404508,22 6.49531555,22 L5.50468445,22 C5.21403503,22 5,22.2259549 5,22.5046844 Z M9,22.5046844 L9,23.4953156 C9,23.785965 9.22595492,24 9.50468445,24 L10.4953156,24 C10.785965,24 11,23.7740451 11,23.4953156 L11,22.5046844 C11,22.214035 10.7740451,22 10.4953156,22 L9.50468445,22 C9.21403503,22 9,22.2259549 9,22.5046844 Z M13,22.5046844 L13,23.4953156 C13,23.785965 13.2259549,24 13.5046844,24 L14.4953156,24 C14.785965,24 15,23.7740451 15,23.4953156 L15,22.5046844 C15,22.214035 14.7740451,22 14.4953156,22 L13.5046844,22 C13.214035,22 13,22.2259549 13,22.5046844 Z M17,22.5046844 L17,23.4953156 C17,23.785965 17.2259549,24 17.5046844,24 L18.4953156,24 C18.785965,24 19,23.7740451 19,23.4953156 L19,22.5046844 C19,22.214035 18.7740451,22 18.4953156,22 L17.5046844,22 C17.214035,22 17,22.2259549 17,22.5046844 Z M21,22.5046844 L21,23.4953156 C21,23.785965 21.2259549,24 21.5046844,24 L22.4953156,24 C22.785965,24 23,23.7740451 23,23.4953156 L23,22.5046844 C23,22.214035 22.7740451,22 22.4953156,22 L21.5046844,22 C21.214035,22 21,22.2259549 21,22.5046844 Z M25,22.5046844 L25,23.4953156 C25,23.785965 25.2259549,24 25.5046844,24 L26.4953156,24 C26.785965,24 27,23.7740451 27,23.4953156 L27,22.5046844 C27,22.214035 26.7740451,22 26.4953156,22 L25.5046844,22 C25.214035,22 25,22.2259549 25,22.5046844 Z" id="path-4"></path>
        <filter x="-14.0%" y="-13.9%" width="128.0%" height="138.9%" filterUnits="objectBoundingBox" id="filter-6">
            <feOffset dx="0" dy="1" in="SourceAlpha" result="shadowOffsetOuter1"></feOffset>
            <feGaussianBlur stdDeviation="1" in="shadowOffsetOuter1" result="shadowBlurOuter1"></feGaussianBlur>
            <feColorMatrix values="0 0 0 0 0   0 0 0 0 0   0 0 0 0 0  0 0 0 0.2 0" type="matrix" in="shadowBlurOuter1"></feColorMatrix>
        </filter>
    </defs>
    <g id="v2" stroke="none" stroke-width="1" fill="none" fill-rule="evenodd">
        <g id="Videos">
            <g>
                <mask id="mask-2" fill="white">
                    <use xlink:href="#path-1"></use>
                </mask>
                <use id="Rectangle-1213" fill="#FFFFFF" xlink:href="#path-1"></use>
                <mask id="mask-5" fill="white">
                    <use xlink:href="#path-4"></use>
                </mask>
                <g id="Combined-Shape">
                    <use fill="black" fill-opacity="1" filter="url(#filter-6)" xlink:href="#path-4"></use>
                    <use fill="url(#linearGradient-3)" fill-rule="evenodd" xlink:href="#path-4"></use>
                </g>
                <path d="M18.9312238,15.4836509 C19.4065871,15.7688689 19.4131743,16.2273464 18.9312238,16.5165167 L13.9640907,19.4967966 C13.4887273,19.7820146 13.1033692,19.5587043 13.1033692,19.0129227 L13.1033692,12.987245 C13.1033692,12.4347908 13.4821401,12.2142007 13.9640907,12.5033711 L18.9312238,15.4836509 Z" id="Triangle" fill="#FFFFFF" mask="url(#mask-5)"></path>
            </g>
        </g>
    </g>
</svg>