<?xml version="1.0" encoding="UTF-8"?>
<svg width="110px" height="62px" viewBox="0 0 110 62" version="1.1" xmlns="http://www.w3.org/2000/svg" xmlns:xlink="http://www.w3.org/1999/xlink">
    <!-- Generator: Sketch 47.1 (45422) - http://www.bohemiancoding.com/sketch -->
    <title>Videos Thumnail</title>
    <desc>Created with Sketch.</desc>
    <defs>
        <rect id="path-1" x="0" y="0" width="110" height="62"></rect>
        <linearGradient x1="24.2539447%" y1="22.5295298%" x2="90.721039%" y2="94.2141917%" id="linearGradient-3">
            <stop stop-color="#6971F2" offset="0%"></stop>
            <stop stop-color="#373B79" offset="100%"></stop>
        </linearGradient>
        <path d="M0.5,0 L25.5,0 L25.5,18 L0.5,18 L0.5,0 Z M2,1.50468445 L2,2.49531555 C2,2.78596497 2.22595492,3 2.50468445,3 L3.49531555,3 C3.78596497,3 4,2.77404508 4,2.49531555 L4,1.50468445 C4,1.21403503 3.77404508,1 3.49531555,1 L2.50468445,1 C2.21403503,1 2,1.22595492 2,1.50468445 Z M6,1.50468445 L6,2.49531555 C6,2.78596497 6.22595492,3 6.50468445,3 L7.49531555,3 C7.78596497,3 8,2.77404508 8,2.49531555 L8,1.50468445 C8,1.21403503 7.77404508,1 7.49531555,1 L6.50468445,1 C6.21403503,1 6,1.22595492 6,1.50468445 Z M10,1.50468445 L10,2.49531555 C10,2.78596497 10.2259549,3 10.5046844,3 L11.4953156,3 C11.785965,3 12,2.77404508 12,2.49531555 L12,1.50468445 C12,1.21403503 11.7740451,1 11.4953156,1 L10.5046844,1 C10.214035,1 10,1.22595492 10,1.50468445 Z M14,1.50468445 L14,2.49531555 C14,2.78596497 14.2259549,3 14.5046844,3 L15.4953156,3 C15.785965,3 16,2.77404508 16,2.49531555 L16,1.50468445 C16,1.21403503 15.7740451,1 15.4953156,1 L14.5046844,1 C14.214035,1 14,1.22595492 14,1.50468445 Z M18,1.50468445 L18,2.49531555 C18,2.78596497 18.2259549,3 18.5046844,3 L19.4953156,3 C19.785965,3 20,2.77404508 20,2.49531555 L20,1.50468445 C20,1.21403503 19.7740451,1 19.4953156,1 L18.5046844,1 C18.214035,1 18,1.22595492 18,1.50468445 Z M22,1.50468445 L22,2.49531555 C22,2.78596497 22.2259549,3 22.5046844,3 L23.4953156,3 C23.785965,3 24,2.77404508 24,2.49531555 L24,1.50468445 C24,1.21403503 23.7740451,1 23.4953156,1 L22.5046844,1 C22.214035,1 22,1.22595492 22,1.50468445 Z M2,15.5046844 L2,16.4953156 C2,16.785965 2.22595492,17 2.50468445,17 L3.49531555,17 C3.78596497,17 4,16.7740451 4,16.4953156 L4,15.5046844 C4,15.214035 3.77404508,15 3.49531555,15 L2.50468445,15 C2.21403503,15 2,15.2259549 2,15.5046844 Z M6,15.5046844 L6,16.4953156 C6,16.785965 6.22595492,17 6.50468445,17 L7.49531555,17 C7.78596497,17 8,16.7740451 8,16.4953156 L8,15.5046844 C8,15.214035 7.77404508,15 7.49531555,15 L6.50468445,15 C6.21403503,15 6,15.2259549 6,15.5046844 Z M10,15.5046844 L10,16.4953156 C10,16.785965 10.2259549,17 10.5046844,17 L11.4953156,17 C11.785965,17 12,16.7740451 12,16.4953156 L12,15.5046844 C12,15.214035 11.7740451,15 11.4953156,15 L10.5046844,15 C10.214035,15 10,15.2259549 10,15.5046844 Z M14,15.5046844 L14,16.4953156 C14,16.785965 14.2259549,17 14.5046844,17 L15.4953156,17 C15.785965,17 16,16.7740451 16,16.4953156 L16,15.5046844 C16,15.214035 15.7740451,15 15.4953156,15 L14.5046844,15 C14.214035,15 14,15.2259549 14,15.5046844 Z M18,15.5046844 L18,16.4953156 C18,16.785965 18.2259549,17 18.5046844,17 L19.4953156,17 C19.785965,17 20,16.7740451 20,16.4953156 L20,15.5046844 C20,15.214035 19.7740451,15 19.4953156,15 L18.5046844,15 C18.214035,15 18,15.2259549 18,15.5046844 Z M22,15.5046844 L22,16.4953156 C22,16.785965 22.2259549,17 22.5046844,17 L23.4953156,17 C23.785965,17 24,16.7740451 24,16.4953156 L24,15.5046844 C24,15.214035 23.7740451,15 23.4953156,15 L22.5046844,15 C22.214035,15 22,15.2259549 22,15.5046844 Z" id="path-4"></path>
        <filter x="-14.0%" y="-13.9%" width="128.0%" height="138.9%" filterUnits="objectBoundingBox" id="filter-6">
            <feOffset dx="0" dy="1" in="SourceAlpha" result="shadowOffsetOuter1"></feOffset>
            <feGaussianBlur stdDeviation="1" in="shadowOffsetOuter1" result="shadowBlurOuter1"></feGaussianBlur>
            <feColorMatrix values="0 0 0 0 0   0 0 0 0 0   0 0 0 0 0  0 0 0 0.2 0" type="matrix" in="shadowBlurOuter1"></feColorMatrix>
        </filter>
    </defs>
    <g id="v2" stroke="none" stroke-width="1" fill="none" fill-rule="evenodd">
        <g id="Videos-Thumnail">
            <g id="Videos">
                <g id="Slides">
                    <mask id="mask-2" fill="white">
                        <use xlink:href="#path-1"></use>
                    </mask>
                    <use id="Rectangle-1213" fill="#FFFFFF" xlink:href="#path-1"></use>
                </g>
                <g transform="translate(42.000000, 22.000000)">
                    <mask id="mask-5" fill="white">
                        <use xlink:href="#path-4"></use>
                    </mask>
                    <g id="Combined-Shape">
                        <use fill="black" fill-opacity="1" filter="url(#filter-6)" xlink:href="#path-4"></use>
                        <use fill="url(#linearGradient-3)" fill-rule="evenodd" xlink:href="#path-4"></use>
                    </g>
                    <path d="M15.9312238,8.48365092 C16.4065871,8.76886893 16.4131743,9.2273464 15.9312238,9.51651671 L10.9640907,12.4967966 C10.4887273,12.7820146 10.1033692,12.5587043 10.1033692,12.0129227 L10.1033692,5.98724495 C10.1033692,5.43479077 10.4821401,5.21420075 10.9640907,5.50337106 L15.9312238,8.48365092 Z" id="Triangle" fill="#FFFFFF" mask="url(#mask-5)"></path>
                </g>
            </g>
        </g>
    </g>
</svg>